# xmcd
#
# Track frame offsets: 
#        150
#        17374
#        34196
#        51988
#        73724
#        91201
#        112683
#        129707
#        154954
#        170819
#
# Disc length: 2511 seconds
#
# Revision: 0
# Processed by: cddbd v1.5.2PL0 Copyright (c) Steve Scherf et al.
# Submitted via: ExactAudioCopyFreeDBPlugin 1.0
#
DISCID=8009cd0a
DTITLE=Dobré Ráno Blues Band - Blues Before Breakfast
DYEAR=2017
DGENRE=Blues
TTITLE0=Baby Please Dont Go
TTITLE1=Cross Road Blues
TTITLE2=Cowboy
TTITLE3=Evil
TTITLE4=Roll And Thumble Blues
TTITLE5=The Soul Of Man
TTITLE6=Outside Woman Blues
TTITLE7=Little Red Rooster
TTITLE8=The Road
TTITLE9=Who Do You Love
EXTD=
EXTT0=
EXTT1=
EXTT2=
EXTT3=
EXTT4=
EXTT5=
EXTT6=
EXTT7=
EXTT8=
EXTT9=
PLAYORDER=
